<?xml version="1.0" encoding="us-ascii" standalone="no"?><svg xmlns="http://www.w3.org/2000/svg" xmlns:xlink="http://www.w3.org/1999/xlink" contentStyleType="text/css" height="1361px" preserveAspectRatio="none" style="width:885px;height:1361px;background:#FFFFFF;" version="1.1" viewBox="0 0 885 1361" width="885px" zoomAndPan="magnify"><defs/><g><text fill="#000000" font-family="sans-serif" font-size="22" font-weight="bold" lengthAdjust="spacing" textLength="530" x="179.25" y="37.8379">Secuencia uplink - ADR y construcci&#243;n del downlink</text><rect fill="none" height="228.2891" style="stroke:#000000;stroke-width:1.5;" width="409" x="10" y="194.9766"/><rect fill="none" height="190.9063" style="stroke:#000000;stroke-width:1.5;" width="389" x="20" y="225.3594"/><rect fill="none" height="847.1016" style="stroke:#000000;stroke-width:1.5;" width="869.5" x="10" y="437.2656"/><rect fill="none" height="576.2031" style="stroke:#000000;stroke-width:1.5;" width="849.5" x="20" y="701.1641"/><rect fill="none" height="60.1172" style="stroke:#000000;stroke-width:1.5;" width="333" x="192" y="868.7188"/><rect fill="none" height="60.1172" style="stroke:#000000;stroke-width:1.5;" width="333" x="192" y="1210.25"/><line style="stroke:#181818;stroke-width:0.5;stroke-dasharray:5.0,5.0;" x1="75" x2="75" y1="108.9219" y2="1354.0703"/><line style="stroke:#181818;stroke-width:0.5;stroke-dasharray:5.0,5.0;" x1="247" x2="247" y1="108.9219" y2="1354.0703"/><line style="stroke:#181818;stroke-width:0.5;stroke-dasharray:5.0,5.0;" x1="351" x2="351" y1="108.9219" y2="1354.0703"/><line style="stroke:#181818;stroke-width:0.5;stroke-dasharray:5.0,5.0;" x1="462" x2="462" y1="108.9219" y2="1354.0703"/><line style="stroke:#181818;stroke-width:0.5;stroke-dasharray:5.0,5.0;" x1="598.5" x2="598.5" y1="108.9219" y2="1354.0703"/><line style="stroke:#181818;stroke-width:0.5;stroke-dasharray:5.0,5.0;" x1="705.5" x2="705.5" y1="1087.2188" y2="1354.0703"/><line style="stroke:#181818;stroke-width:0.5;stroke-dasharray:5.0,5.0;" x1="811.5" x2="811.5" y1="108.9219" y2="1354.0703"/><rect fill="#E2E2F0" height="54.25" rx="2.5" ry="2.5" style="stroke:#181818;stroke-width:0.5;" width="71" x="40" y="53.6719"/><text fill="#000000" font-family="sans-serif" font-size="16" lengthAdjust="spacing" textLength="57" x="47" y="77.2813">Network</text><text fill="#000000" font-family="sans-serif" font-size="16" lengthAdjust="spacing" textLength="46" x="52.5" y="97.4063">Server</text><rect fill="#E2E2F0" height="54.25" rx="2.5" ry="2.5" style="stroke:#181818;stroke-width:0.5;" width="71" x="212" y="53.6719"/><text fill="#000000" font-family="sans-serif" font-size="16" lengthAdjust="spacing" textLength="49" x="223" y="77.2813">Device</text><text fill="#000000" font-family="sans-serif" font-size="16" lengthAdjust="spacing" textLength="57" x="219" y="97.4063">Session</text><rect fill="#E2E2F0" height="54.25" rx="2.5" ry="2.5" style="stroke:#181818;stroke-width:0.5;" width="76" x="313" y="53.6719"/><text fill="#000000" font-family="sans-serif" font-size="16" lengthAdjust="spacing" textLength="34" x="334" y="77.2813">ADR</text><text fill="#000000" font-family="sans-serif" font-size="16" lengthAdjust="spacing" textLength="62" x="320" y="97.4063">Manager</text><rect fill="#E2E2F0" height="54.25" rx="2.5" ry="2.5" style="stroke:#181818;stroke-width:0.5;" width="86" x="419" y="53.6719"/><text fill="#000000" font-family="sans-serif" font-size="16" lengthAdjust="spacing" textLength="63" x="430.5" y="77.2813">Downlink</text><text fill="#000000" font-family="sans-serif" font-size="16" lengthAdjust="spacing" textLength="72" x="426" y="97.4063">Processor</text><rect fill="#E2E2F0" height="54.25" rx="2.5" ry="2.5" style="stroke:#181818;stroke-width:0.5;" width="77" x="560.5" y="53.6719"/><text fill="#000000" font-family="sans-serif" font-size="16" lengthAdjust="spacing" textLength="63" x="567.5" y="77.2813">Downlink</text><text fill="#000000" font-family="sans-serif" font-size="16" lengthAdjust="spacing" textLength="42" x="578" y="97.4063">Policy</text><rect fill="#E2E2F0" height="34.125" rx="2.5" ry="2.5" style="stroke:#181818;stroke-width:0.5;" width="75" x="774.5" y="73.7969"/><text fill="#000000" font-family="sans-serif" font-size="16" lengthAdjust="spacing" textLength="61" x="781.5" y="97.4063">Gateway</text><path d="M32,123.9219 L32,182.9219 L290,182.9219 L290,133.9219 L280,123.9219 L32,123.9219 " fill="#FEFFDD" style="stroke:#181818;stroke-width:0.5;"/><path d="M280,123.9219 L280,133.9219 L290,133.9219 L280,123.9219 " fill="#FEFFDD" style="stroke:#181818;stroke-width:0.5;"/><text fill="#000000" font-family="sans-serif" font-size="13" lengthAdjust="spacing" textLength="82" x="84.5" y="142.417">Inicio del 07B:</text><text fill="#000000" font-family="sans-serif" font-size="13" lengthAdjust="spacing" textLength="144" x="84.5" y="158.7686">el uplink ya fue aceptado</text><text fill="#000000" font-family="sans-serif" font-size="13" lengthAdjust="spacing" textLength="118" x="84.5" y="175.1201">en el Diagrama 07A.</text><path d="M10,194.9766 L180,194.9766 L180,208.3594 L170,218.3594 L10,218.3594 L10,194.9766 " fill="#EEEEEE" style="stroke:#000000;stroke-width:1.5;"/><rect fill="none" height="228.2891" style="stroke:#000000;stroke-width:1.5;" width="409" x="10" y="194.9766"/><text fill="#000000" font-family="sans-serif" font-size="17" font-weight="bold" lengthAdjust="spacing" textLength="125" x="25" y="213.624">Evaluaci&#243;n ADR</text><path d="M20,225.3594 L84,225.3594 L84,238.7422 L74,248.7422 L20,248.7422 L20,225.3594 " fill="#EEEEEE" style="stroke:#000000;stroke-width:1.5;"/><rect fill="none" height="190.9063" style="stroke:#000000;stroke-width:1.5;" width="389" x="20" y="225.3594"/><text fill="#000000" font-family="sans-serif" font-size="17" font-weight="bold" lengthAdjust="spacing" textLength="19" x="35" y="244.0068">alt</text><text fill="#000000" font-family="sans-serif" font-size="17" font-weight="bold" lengthAdjust="spacing" textLength="128" x="99" y="245.0068">[ADR habilitado]</text><polygon fill="#181818" points="339,273.4766,349,277.4766,339,281.4766,343,277.4766" style="stroke:#181818;stroke-width:1.0;"/><line style="stroke:#181818;stroke-width:1.0;" x1="75.5" x2="345" y1="277.4766" y2="277.4766"/><text fill="#000000" font-family="sans-serif" font-size="13" font-weight="bold" lengthAdjust="spacing" textLength="7" x="82.5" y="272.6201">1</text><text fill="#000000" font-family="sans-serif" font-size="13" lengthAdjust="spacing" textLength="183" x="93.5" y="272.6201">recommendSpreadingFactor(...)</text><polygon fill="#181818" points="86.5,303.8281,76.5,307.8281,86.5,311.8281,82.5,307.8281" style="stroke:#181818;stroke-width:1.0;"/><line style="stroke:#181818;stroke-width:1.0;stroke-dasharray:2.0,2.0;" x1="80.5" x2="350" y1="307.8281" y2="307.8281"/><text fill="#000000" font-family="sans-serif" font-size="13" font-weight="bold" lengthAdjust="spacing" textLength="7" x="92.5" y="302.9717">2</text><text fill="#000000" font-family="sans-serif" font-size="13" lengthAdjust="spacing" textLength="94" x="103.5" y="302.9717">recommendedSf</text><polygon fill="#181818" points="235.5,334.1797,245.5,338.1797,235.5,342.1797,239.5,338.1797" style="stroke:#181818;stroke-width:1.0;"/><line style="stroke:#181818;stroke-width:1.0;" x1="75.5" x2="241.5" y1="338.1797" y2="338.1797"/><text fill="#000000" font-family="sans-serif" font-size="13" font-weight="bold" lengthAdjust="spacing" textLength="7" x="82.5" y="333.3232">3</text><text fill="#000000" font-family="sans-serif" font-size="13" lengthAdjust="spacing" textLength="137" x="93.5" y="333.3232">setRecommendedSf(...)</text><line style="stroke:#000000;stroke-width:1.0;stroke-dasharray:2.0,2.0;" x1="20" x2="409" y1="347.1797" y2="347.1797"/><text fill="#000000" font-family="sans-serif" font-size="17" font-weight="bold" lengthAdjust="spacing" textLength="156" x="25" y="364.8271">[ADR deshabilitado]</text><polygon fill="#181818" points="235.5,404.2656,245.5,408.2656,235.5,412.2656,239.5,408.2656" style="stroke:#181818;stroke-width:1.0;"/><line style="stroke:#181818;stroke-width:1.0;" x1="75.5" x2="241.5" y1="408.2656" y2="408.2656"/><text fill="#000000" font-family="sans-serif" font-size="13" font-weight="bold" lengthAdjust="spacing" textLength="7" x="82.5" y="395.2334">4</text><text fill="#000000" font-family="sans-serif" font-size="13" lengthAdjust="spacing" textLength="54" x="93.5" y="387.0576">mantener</text><text fill="#000000" font-family="sans-serif" font-size="13" lengthAdjust="spacing" textLength="4" x="147.5" y="387.0576">&#160;</text><text fill="#000000" font-family="sans-serif" font-size="13" lengthAdjust="spacing" textLength="17" x="151.5" y="387.0576">SF</text><text fill="#000000" font-family="sans-serif" font-size="13" lengthAdjust="spacing" textLength="35" x="93.5" y="403.4092">actual</text><path d="M10,437.2656 L243,437.2656 L243,450.6484 L233,460.6484 L10,460.6484 L10,437.2656 " fill="#EEEEEE" style="stroke:#000000;stroke-width:1.5;"/><rect fill="none" height="847.1016" style="stroke:#000000;stroke-width:1.5;" width="869.5" x="10" y="437.2656"/><text fill="#000000" font-family="sans-serif" font-size="17" font-weight="bold" lengthAdjust="spacing" textLength="188" x="25" y="455.9131">Evaluaci&#243;n del downlink</text><polygon fill="#181818" points="450,479,460,483,450,487,454,483" style="stroke:#181818;stroke-width:1.0;"/><line style="stroke:#181818;stroke-width:1.0;" x1="75.5" x2="456" y1="483" y2="483"/><text fill="#000000" font-family="sans-serif" font-size="13" font-weight="bold" lengthAdjust="spacing" textLength="7" x="82.5" y="478.1436">5</text><text fill="#000000" font-family="sans-serif" font-size="13" lengthAdjust="spacing" textLength="66" x="93.5" y="478.1436">process(...)</text><polygon fill="#181818" points="587,509.3516,597,513.3516,587,517.3516,591,513.3516" style="stroke:#181818;stroke-width:1.0;"/><line style="stroke:#181818;stroke-width:1.0;" x1="462" x2="593" y1="513.3516" y2="513.3516"/><text fill="#000000" font-family="sans-serif" font-size="13" font-weight="bold" lengthAdjust="spacing" textLength="7" x="469" y="508.4951">6</text><text fill="#000000" font-family="sans-serif" font-size="13" lengthAdjust="spacing" textLength="67" x="480" y="508.4951">evaluate(...)</text><polygon fill="#181818" points="473,539.7031,463,543.7031,473,547.7031,469,543.7031" style="stroke:#181818;stroke-width:1.0;"/><line style="stroke:#181818;stroke-width:1.0;stroke-dasharray:2.0,2.0;" x1="467" x2="598" y1="543.7031" y2="543.7031"/><text fill="#000000" font-family="sans-serif" font-size="13" font-weight="bold" lengthAdjust="spacing" textLength="7" x="479" y="538.8467">7</text><text fill="#000000" font-family="sans-serif" font-size="13" lengthAdjust="spacing" textLength="102" x="490" y="538.8467">DownlinkDecision</text><polygon fill="#181818" points="258.5,635.4609,248.5,639.4609,258.5,643.4609,254.5,639.4609" style="stroke:#181818;stroke-width:1.0;"/><line style="stroke:#181818;stroke-width:1.0;" x1="252.5" x2="461" y1="639.4609" y2="639.4609"/><text fill="#000000" font-family="sans-serif" font-size="13" font-weight="bold" lengthAdjust="spacing" textLength="7" x="264.5" y="601.9014">8</text><text fill="#000000" font-family="sans-serif" font-size="13" lengthAdjust="spacing" textLength="53" x="275.5" y="569.1982">consultar</text><text fill="#000000" font-family="sans-serif" font-size="13" lengthAdjust="spacing" textLength="27" x="275.5" y="585.5498">ACK</text><text fill="#000000" font-family="sans-serif" font-size="13" lengthAdjust="spacing" textLength="7" x="275.5" y="601.9014">y</text><text fill="#000000" font-family="sans-serif" font-size="13" lengthAdjust="spacing" textLength="88" x="275.5" y="618.2529">recomendaci&#243;n</text><text fill="#000000" font-family="sans-serif" font-size="13" lengthAdjust="spacing" textLength="27" x="275.5" y="634.6045">ADR</text><polygon fill="#181818" points="450,682.1641,460,686.1641,450,690.1641,454,686.1641" style="stroke:#181818;stroke-width:1.0;"/><line style="stroke:#181818;stroke-width:1.0;stroke-dasharray:2.0,2.0;" x1="247.5" x2="456" y1="686.1641" y2="686.1641"/><text fill="#000000" font-family="sans-serif" font-size="13" font-weight="bold" lengthAdjust="spacing" textLength="7" x="254.5" y="673.1318">9</text><text fill="#000000" font-family="sans-serif" font-size="13" lengthAdjust="spacing" textLength="39" x="265.5" y="664.9561">estado</text><text fill="#000000" font-family="sans-serif" font-size="13" lengthAdjust="spacing" textLength="4" x="304.5" y="664.9561">&#160;</text><text fill="#000000" font-family="sans-serif" font-size="13" lengthAdjust="spacing" textLength="14" x="308.5" y="664.9561">de</text><text fill="#000000" font-family="sans-serif" font-size="13" lengthAdjust="spacing" textLength="38" x="265.5" y="681.3076">sesi&#243;n</text><path d="M20,701.1641 L84,701.1641 L84,714.5469 L74,724.5469 L20,724.5469 L20,701.1641 " fill="#EEEEEE" style="stroke:#000000;stroke-width:1.5;"/><rect fill="none" height="576.2031" style="stroke:#000000;stroke-width:1.5;" width="849.5" x="20" y="701.1641"/><text fill="#000000" font-family="sans-serif" font-size="17" font-weight="bold" lengthAdjust="spacing" textLength="19" x="35" y="719.8115">alt</text><text fill="#000000" font-family="sans-serif" font-size="17" font-weight="bold" lengthAdjust="spacing" textLength="250" x="99" y="720.8115">[No existe respuesta pendiente]</text><polygon fill="#181818" points="86.5,765.6328,76.5,769.6328,86.5,773.6328,82.5,769.6328" style="stroke:#181818;stroke-width:1.0;"/><line style="stroke:#181818;stroke-width:1.0;stroke-dasharray:2.0,2.0;" x1="80.5" x2="461" y1="769.6328" y2="769.6328"/><text fill="#000000" font-family="sans-serif" font-size="13" font-weight="bold" lengthAdjust="spacing" textLength="14" x="92.5" y="756.6006">10</text><text fill="#000000" font-family="sans-serif" font-size="13" lengthAdjust="spacing" textLength="44" x="110.5" y="748.4248">finalizar</text><text fill="#000000" font-family="sans-serif" font-size="13" lengthAdjust="spacing" textLength="4" x="154.5" y="748.4248">&#160;</text><text fill="#000000" font-family="sans-serif" font-size="13" lengthAdjust="spacing" textLength="17" x="158.5" y="748.4248">sin</text><text fill="#000000" font-family="sans-serif" font-size="13" lengthAdjust="spacing" textLength="50" x="110.5" y="764.7764">downlink</text><line style="stroke:#000000;stroke-width:1.0;stroke-dasharray:2.0,2.0;" x1="20" x2="869.5" y1="778.6328" y2="778.6328"/><text fill="#000000" font-family="sans-serif" font-size="17" font-weight="bold" lengthAdjust="spacing" textLength="198" x="25" y="796.2803">[Debe enviarse downlink]</text><polygon fill="#181818" points="258.5,819.3672,248.5,823.3672,258.5,827.3672,254.5,823.3672" style="stroke:#181818;stroke-width:1.0;"/><line style="stroke:#181818;stroke-width:1.0;" x1="252.5" x2="461" y1="823.3672" y2="823.3672"/><text fill="#000000" font-family="sans-serif" font-size="13" font-weight="bold" lengthAdjust="spacing" textLength="14" x="264.5" y="818.5107">11</text><text fill="#000000" font-family="sans-serif" font-size="13" lengthAdjust="spacing" textLength="93" x="282.5" y="818.5107">nextFCntDown()</text><polygon fill="#181818" points="450,849.7188,460,853.7188,450,857.7188,454,853.7188" style="stroke:#181818;stroke-width:1.0;"/><line style="stroke:#181818;stroke-width:1.0;stroke-dasharray:2.0,2.0;" x1="247.5" x2="456" y1="853.7188" y2="853.7188"/><text fill="#000000" font-family="sans-serif" font-size="13" font-weight="bold" lengthAdjust="spacing" textLength="14" x="254.5" y="848.8623">12</text><text fill="#000000" font-family="sans-serif" font-size="13" lengthAdjust="spacing" textLength="55" x="272.5" y="848.8623">fCntDown</text><path d="M192,868.7188 L263,868.7188 L263,882.1016 L253,892.1016 L192,892.1016 L192,868.7188 " fill="#EEEEEE" style="stroke:#000000;stroke-width:1.5;"/><rect fill="none" height="60.1172" style="stroke:#000000;stroke-width:1.5;" width="333" x="192" y="868.7188"/><text fill="#000000" font-family="sans-serif" font-size="17" font-weight="bold" lengthAdjust="spacing" textLength="26" x="207" y="887.3662">opt</text><text fill="#000000" font-family="sans-serif" font-size="17" font-weight="bold" lengthAdjust="spacing" textLength="128" x="278" y="888.3662">[ACK requerido]</text><polygon fill="#181818" points="258.5,916.8359,248.5,920.8359,258.5,924.8359,254.5,920.8359" style="stroke:#181818;stroke-width:1.0;"/><line style="stroke:#181818;stroke-width:1.0;" x1="252.5" x2="461" y1="920.8359" y2="920.8359"/><text fill="#000000" font-family="sans-serif" font-size="13" font-weight="bold" lengthAdjust="spacing" textLength="14" x="264.5" y="915.9795">13</text><text fill="#000000" font-family="sans-serif" font-size="13" lengthAdjust="spacing" textLength="146" x="282.5" y="915.9795">registerAckGenerated(...)</text><line style="stroke:#181818;stroke-width:1.0;" x1="462" x2="504" y1="1023.5938" y2="1023.5938"/><line style="stroke:#181818;stroke-width:1.0;" x1="504" x2="504" y1="1023.5938" y2="1036.5938"/><line style="stroke:#181818;stroke-width:1.0;" x1="463" x2="504" y1="1036.5938" y2="1036.5938"/><polygon fill="#181818" points="473,1032.5938,463,1036.5938,473,1040.5938,469,1036.5938" style="stroke:#181818;stroke-width:1.0;"/><text fill="#000000" font-family="sans-serif" font-size="13" font-weight="bold" lengthAdjust="spacing" textLength="14" x="469" y="986.0342">14</text><text fill="#000000" font-family="sans-serif" font-size="13" lengthAdjust="spacing" textLength="53" x="487" y="953.3311">combinar</text><text fill="#000000" font-family="sans-serif" font-size="13" lengthAdjust="spacing" textLength="31" x="487" y="969.6826">ACK,</text><text fill="#000000" font-family="sans-serif" font-size="13" lengthAdjust="spacing" textLength="4" x="518" y="969.6826">&#160;</text><text fill="#000000" font-family="sans-serif" font-size="13" lengthAdjust="spacing" textLength="27" x="522" y="969.6826">ADR</text><text fill="#000000" font-family="sans-serif" font-size="13" lengthAdjust="spacing" textLength="7" x="487" y="986.0342">y</text><text fill="#000000" font-family="sans-serif" font-size="13" lengthAdjust="spacing" textLength="4" x="494" y="986.0342">&#160;</text><text fill="#000000" font-family="sans-serif" font-size="13" lengthAdjust="spacing" textLength="53" x="498" y="986.0342">comando</text><text fill="#000000" font-family="sans-serif" font-size="13" lengthAdjust="spacing" textLength="14" x="487" y="1002.3857">de</text><text fill="#000000" font-family="sans-serif" font-size="13" lengthAdjust="spacing" textLength="58" x="487" y="1018.7373">aplicaci&#243;n</text><polygon fill="#181818" points="655.5,1079.2969,665.5,1083.2969,655.5,1087.2969,659.5,1083.2969" style="stroke:#181818;stroke-width:1.0;"/><line style="stroke:#181818;stroke-width:1.0;" x1="462" x2="661.5" y1="1083.2969" y2="1083.2969"/><text fill="#000000" font-family="sans-serif" font-size="13" font-weight="bold" lengthAdjust="spacing" textLength="14" x="469" y="1070.2646">15</text><text fill="#000000" font-family="sans-serif" font-size="13" lengthAdjust="spacing" textLength="29" x="487" y="1062.0889">crear</text><text fill="#000000" font-family="sans-serif" font-size="13" lengthAdjust="spacing" textLength="109" x="487" y="1078.4404">DownlinkFrame(...)</text><rect fill="#E2E2F0" height="54.25" rx="2.5" ry="2.5" style="stroke:#181818;stroke-width:0.5;" width="77" x="667.5" y="1044.5938"/><text fill="#000000" font-family="sans-serif" font-size="16" lengthAdjust="spacing" textLength="63" x="674.5" y="1068.2031">Downlink</text><text fill="#000000" font-family="sans-serif" font-size="16" lengthAdjust="spacing" textLength="46" x="683" y="1088.3281">Frame</text><polygon fill="#181818" points="473,1144.5469,463,1148.5469,473,1152.5469,469,1148.5469" style="stroke:#181818;stroke-width:1.0;"/><line style="stroke:#181818;stroke-width:1.0;stroke-dasharray:2.0,2.0;" x1="467" x2="705" y1="1148.5469" y2="1148.5469"/><text fill="#000000" font-family="sans-serif" font-size="13" font-weight="bold" lengthAdjust="spacing" textLength="14" x="479" y="1135.5146">16</text><text fill="#000000" font-family="sans-serif" font-size="13" lengthAdjust="spacing" textLength="45" x="497" y="1127.3389">payload</text><text fill="#000000" font-family="sans-serif" font-size="13" lengthAdjust="spacing" textLength="4" x="542" y="1127.3389">&#160;</text><text fill="#000000" font-family="sans-serif" font-size="13" lengthAdjust="spacing" textLength="14" x="546" y="1127.3389">de</text><text fill="#000000" font-family="sans-serif" font-size="13" lengthAdjust="spacing" textLength="50" x="497" y="1143.6904">downlink</text><polygon fill="#181818" points="800,1191.25,810,1195.25,800,1199.25,804,1195.25" style="stroke:#181818;stroke-width:1.0;"/><line style="stroke:#181818;stroke-width:1.0;" x1="462" x2="806" y1="1195.25" y2="1195.25"/><text fill="#000000" font-family="sans-serif" font-size="13" font-weight="bold" lengthAdjust="spacing" textLength="14" x="469" y="1182.2178">17</text><text fill="#000000" font-family="sans-serif" font-size="13" lengthAdjust="spacing" textLength="133" x="487" y="1174.042">sendDownlink(payload,</text><text fill="#000000" font-family="sans-serif" font-size="13" lengthAdjust="spacing" textLength="55" x="487" y="1190.3936">transport)</text><path d="M192,1210.25 L263,1210.25 L263,1223.6328 L253,1233.6328 L192,1233.6328 L192,1210.25 " fill="#EEEEEE" style="stroke:#000000;stroke-width:1.5;"/><rect fill="none" height="60.1172" style="stroke:#000000;stroke-width:1.5;" width="333" x="192" y="1210.25"/><text fill="#000000" font-family="sans-serif" font-size="17" font-weight="bold" lengthAdjust="spacing" textLength="26" x="207" y="1228.8975">opt</text><text fill="#000000" font-family="sans-serif" font-size="17" font-weight="bold" lengthAdjust="spacing" textLength="113" x="278" y="1229.8975">[ACK enviado]</text><polygon fill="#181818" points="258.5,1258.3672,248.5,1262.3672,258.5,1266.3672,254.5,1262.3672" style="stroke:#181818;stroke-width:1.0;"/><line style="stroke:#181818;stroke-width:1.0;" x1="252.5" x2="461" y1="1262.3672" y2="1262.3672"/><text fill="#000000" font-family="sans-serif" font-size="13" font-weight="bold" lengthAdjust="spacing" textLength="14" x="264.5" y="1257.5107">18</text><text fill="#000000" font-family="sans-serif" font-size="13" lengthAdjust="spacing" textLength="127" x="282.5" y="1257.5107">setAckRequired(false)</text><path d="M414,1296.3672 L414,1338.3672 L859,1338.3672 L859,1306.3672 L849,1296.3672 L414,1296.3672 " fill="#FEFFDD" style="stroke:#181818;stroke-width:0.5;"/><path d="M849,1296.3672 L849,1306.3672 L859,1306.3672 L849,1296.3672 " fill="#FEFFDD" style="stroke:#181818;stroke-width:0.5;"/><text fill="#000000" font-family="sans-serif" font-size="13" lengthAdjust="spacing" textLength="214" x="525.25" y="1314.8623">La entrega del downlink al dispositivo</text><text fill="#000000" font-family="sans-serif" font-size="13" lengthAdjust="spacing" textLength="171" x="525.25" y="1331.2139">contin&#250;a en el Diagrama 07C.</text><!--SRC=[XLLDJnin4Btlhx0uWPH4G4kHE5GAR1DLBL747hZaCl7E1YiRUsjxyy7VwgtN_h6ElL_UaAWvGF0yFy-yDpDOONDa2V8I9HV0oY8NSis6R1o_i0FZIXghIyx5tz-IfPYpLEsaWqJHcqYHPKhPfTf7K5eboyqITHIPjP05QDWmymQ45tB5CiWD1f4KCoXpEr7I9k8TsSrz4BGkgJPqUzkZn5ykLPo3jeAB0cH0ykK4y1cDWLL7T_Cv04bbWyYd83BMMkt2K10Btfv3chhwRgw3-AFQD-TtmV46zdKodlF-BegYegDY5pEqEwNN2vcWtgA-O63OBEbZOjmAZWvYZ53IO-hlVI0Pk93F8EcvYeaEZgXgAnTohXKd3bK1u_bPdCe5FtXGzVKSS4BrOaKswM6cO7471nUPlbBzpW2cg5WgTD0MybqINlb-kxv_V8ZeTzsO1s1PYGmu5fPwAqB9A1WBMD6BGEZnYCvIRopHhxGg2_Pj2ta9LGyx5I967yYjR_8tM8fSU39_xZwpX0s_-kW3qyZLPaESIQ4HdAaJu5Rfoz5eTDNUSDWXtQ6RmHLCa-oOjQwHO0RjIuYi63qSQLeyPuhcV88TrOQqHKag9XFInfQGrpmoZIB_uuGK_N7kQECvCHPLImGvqJ45Azy9W9x9OgT37Hes54qxnCY5jpMWwL9tAuOs0MWsVlgna8TAFSevCCpTQswqz6YS9bG52MaSjFDrfXZkXQ7MqcYAqY5PGPG2fMkBHaMNIkDP9YJauftIC48UoUBTY769fETMWAQ_-e1JTKdSsycJj4w5owvHFfIHrPYEIHNMQK6vqmRJ8lJzr4CQLwvKFURhgUi1yYGDR6lRe7_Vlqr2BwbkB_s0-OtXTZvrKoKiqD3noeVkFgSn86Lfi8yO9uwHWhfrtg-1erm8rjPUm25NaBgdpWawVVMJ8jE6yxA-D61MWpI5qlRgetRUgFyfHmD8ehsGp4AJPlv_r2dLWYdgzbKy7xWLzXCeRCa3wCqJjI5B1MLdX1LR5L6NMo7__d7eeutr56oiVm00]--></g></svg>